<?xml version="1.0" encoding="UTF-8"?>
<svg width="38px" height="38px" viewBox="0 0 38 38" version="1.1" xmlns="http://www.w3.org/2000/svg" xmlns:xlink="http://www.w3.org/1999/xlink">
    <!-- Generator: Sketch 58 (84663) - https://sketch.com -->
    <title>Fill 42@2x</title>
    <desc>Created with Sketch.</desc>
    <g id="Page-1" stroke="none" stroke-width="1" fill="none" fill-rule="evenodd">
        <g id="Desktop-HD-Copy" transform="translate(-654.000000, -5865.000000)" fill="#192733">
            <g id="Group-3" transform="translate(565.000000, 5865.000000)">
                <path d="M124.076923,0 L91.9230769,0 C90.311,0 89,1.311 89,2.92307692 L89,35.0769231 C89,36.689 90.311,38 91.9230769,38 L107.269231,38 C107.672615,38 108,37.6726154 108,37.2692308 L108,27.0384615 C108,26.6350769 107.672615,26.3076923 107.269231,26.3076923 L104.346154,26.3076923 C103.942769,26.3076923 103.615385,25.9803077 103.615385,25.5769231 L103.615385,19.7307692 C103.615385,19.3273846 103.942769,19 104.346154,19 L107.269231,19 C107.672615,19 108,18.6726154 108,18.2692308 L108,15.3461538 C108,10.9133077 111.605615,7.30769231 116.038462,7.30769231 L120.423077,7.30769231 C120.826462,7.30769231 121.153846,7.63507692 121.153846,8.03846154 L121.153846,13.8846154 C121.153846,14.288 120.826462,14.6153846 120.423077,14.6153846 L117.5,14.6153846 C116.291308,14.6153846 115.307692,15.599 115.307692,16.8076923 L115.307692,18.2692308 C115.307692,18.6726154 115.635077,19 116.038462,19 L120.423077,19 C120.633538,19 120.832308,19.0906154 120.971154,19.247 C121.11,19.4048462 121.174308,19.6138462 121.148,19.8213846 L120.417231,25.6675385 C120.371923,26.0329231 120.059154,26.3076923 119.692308,26.3076923 L116.038462,26.3076923 C115.635077,26.3076923 115.307692,26.6350769 115.307692,27.0384615 L115.307692,37.2692308 C115.307692,37.6726154 115.635077,38 116.038462,38 L124.076923,38 C125.689,38 127,36.689 127,35.0769231 L127,2.92307692 C127,1.311 125.689,0 124.076923,0" id="Fill-42"></path>
            </g>
        </g>
    </g>
</svg>