<svg id="Capa_1" data-name="Capa 1" xmlns="http://www.w3.org/2000/svg" viewBox="0 0 416 416"><defs><style>.cls-1{fill:#ffb200;}.cls-2{fill:#12171e;isolation:isolate;}.cls-3{fill:none;stroke:#12171e;stroke-miterlimit:10;stroke-width:16px;}</style></defs><title>up-01</title><circle class="cls-1" cx="208" cy="208" r="203.77"/><path class="cls-2" d="M213.16,179.24l41.29,41.29a7.24,7.24,0,0,1,.1,10.23l-.1.09-1.67,1.52a7.24,7.24,0,0,1-10.24.08.6.6,0,0,1-.08-.08L208,196.24l-34.61,36.13a7.26,7.26,0,0,1-10.27.06l-.06-.06L161.55,231a7.23,7.23,0,0,1-.1-10.22l.1-.1,41.29-41.29A7.36,7.36,0,0,1,213.16,179.24Z"/><circle class="cls-3" cx="208" cy="208" r="99.6"/></svg>