<?xml version="1.0" encoding="UTF-8"?>
<svg width="38px" height="38px" viewBox="0 0 38 38" version="1.1" xmlns="http://www.w3.org/2000/svg" xmlns:xlink="http://www.w3.org/1999/xlink">
    <!-- Generator: Sketch 58 (84663) - https://sketch.com -->
    <title>Group 2@2x</title>
    <desc>Created with Sketch.</desc>
    <g id="Page-1" stroke="none" stroke-width="1" fill="none" fill-rule="evenodd">
        <g id="Desktop-HD-Copy" transform="translate(-742.000000, -5865.000000)" fill="#192733">
            <g id="Group-3" transform="translate(565.000000, 5865.000000)">
                <g id="Group-2" transform="translate(177.000000, 0.000000)">
                    <path d="M34.8979592,28.3942486 C34.8979592,31.979961 31.979961,34.8979592 28.3942486,34.8979592 L9.60575139,34.8979592 C6.02003896,34.8979592 3.10204082,31.979961 3.10204082,28.3942486 L3.10204082,9.60575139 C3.10204082,6.02003896 6.02003896,3.10204082 9.60575139,3.10204082 L28.3942486,3.10204082 C31.979961,3.10204082 34.8979592,6.02003896 34.8979592,9.60575139 L34.8979592,28.3942486 Z M28.5,0 L9.5,0 C4.26184615,0 0,4.26184615 0,9.5 L0,28.5 C0,33.7381538 4.26184615,38 9.5,38 L28.5,38 C33.7381538,38 38,33.7381538 38,28.5 L38,9.5 C38,4.26184615 33.7381538,0 28.5,0 L28.5,0 Z" id="Fill-22"></path>
                    <path d="M19.3870601,26.3673469 C15.5383118,26.3673469 12.4081633,23.2361203 12.4081633,19.3877551 C12.4081633,15.5393899 15.5383118,12.4081633 19.3870601,12.4081633 C23.2358085,12.4081633 26.3673469,15.5393899 26.3673469,19.3877551 C26.3673469,23.2361203 23.2358085,26.3673469 19.3870601,26.3673469 M18.9993097,9.30612245 C13.6536295,9.30612245 9.30612245,13.6547004 9.30612245,19 C9.30612245,24.3452996 13.6536295,28.6938776 18.9993097,28.6938776 C24.34499,28.6938776 28.6938776,24.3452996 28.6938776,19 C28.6938776,13.6547004 24.34499,9.30612245 18.9993097,9.30612245" id="Fill-24"></path>
                    <path d="M28.6938776,6.20408163 C27.8392653,6.20408163 27.1428571,6.9004898 27.1428571,7.75510204 C27.1428571,8.60971429 27.8392653,9.30612245 28.6938776,9.30612245 C29.5484898,9.30612245 30.244898,8.60971429 30.244898,7.75510204 C30.244898,6.9004898 29.5484898,6.20408163 28.6938776,6.20408163" id="Fill-26"></path>
                </g>
            </g>
        </g>
    </g>
</svg>