<?xml version="1.0" encoding="UTF-8"?>
<svg width="38px" height="38px" viewBox="0 0 38 38" version="1.1" xmlns="http://www.w3.org/2000/svg" xmlns:xlink="http://www.w3.org/1999/xlink">
    <!-- Generator: Sketch 58 (84663) - https://sketch.com -->
    <title>Fill 115@2x</title>
    <desc>Created with Sketch.</desc>
    <g id="Page-1" stroke="none" stroke-width="1" fill="none" fill-rule="evenodd">
        <g id="Desktop-HD-Copy" transform="translate(-565.000000, -5865.000000)" fill="#192733">
            <g id="Group-3" transform="translate(565.000000, 5865.000000)">
                <path d="M34,33.2692308 C34,33.6726154 33.6726154,34 33.2692308,34 L27.4230769,34 C27.0196923,34 26.6923077,33.6726154 26.6923077,33.2692308 L26.6923077,23.0384615 C26.6923077,21.8297692 25.7086923,20.8461538 24.5,20.8461538 C23.2913077,20.8461538 22.3076923,21.8297692 22.3076923,23.0384615 L22.3076923,33.2692308 C22.3076923,33.6726154 21.9803077,34 21.5769231,34 L15.7307692,34 C15.3273846,34 15,33.6726154 15,33.2692308 L15,15.7307692 C15,15.3273846 15.3273846,15 15.7307692,15 L21.5769231,15 C21.9803077,15 22.3076923,15.3273846 22.3076923,15.7307692 L22.3076923,16.4893077 C23.5631538,15.5290769 25.0919231,15 26.6923077,15 C30.7217692,15 34,18.2782308 34,22.3076923 L34,33.2692308 Z M9.5,13 C7.5708,13 6,11.4292 6,9.5 C6,7.5708 7.5708,6 9.5,6 C11.4292,6 13,7.5708 13,9.5 C13,11.4292 11.4292,13 9.5,13 L9.5,13 Z M13,33.2692308 C13,33.6726154 12.6864,34 12.3,34 L6.7,34 C6.3136,34 6,33.6726154 6,33.2692308 L6,15.7307692 C6,15.3273846 6.3136,15 6.7,15 L12.3,15 C12.6864,15 13,15.3273846 13,15.7307692 L13,33.2692308 Z M35.0769231,0 L2.92307692,0 C1.311,0 0,1.311 0,2.92307692 L0,35.0769231 C0,36.689 1.311,38 2.92307692,38 L35.0769231,38 C36.689,38 38,36.689 38,35.0769231 L38,2.92307692 C38,1.311 36.689,0 35.0769231,0 L35.0769231,0 Z" id="Fill-115"></path>
            </g>
        </g>
    </g>
</svg>