<?xml version="1.0" encoding="UTF-8"?>
<svg width="39px" height="29px" viewBox="0 0 39 29" version="1.1" xmlns="http://www.w3.org/2000/svg" xmlns:xlink="http://www.w3.org/1999/xlink">
    <!-- Generator: Sketch 58 (84663) - https://sketch.com -->
    <title>Fill 50@2x</title>
    <desc>Created with Sketch.</desc>
    <g id="Page-1" stroke="none" stroke-width="1" fill="none" fill-rule="evenodd">
        <g id="Desktop-HD-Copy" transform="translate(-831.000000, -5869.000000)" fill="#192733">
            <g id="Group-3" transform="translate(565.000000, 5865.000000)">
                <path d="M292.67735,18.7836479 L280.52735,25.6587487 C280.41935,25.7199996 280.29785,25.75 280.175,25.75 C280.0616,25.75 279.9482,25.7237496 279.8456,25.6699988 C279.6323,25.5599972 279.5,25.3512442 279.5,25.1249908 L279.5,11.3747894 C279.5,11.1497861 279.6323,10.941033 279.8456,10.8297814 C280.0589,10.7197798 280.31945,10.7235298 280.52735,10.8410316 L292.67735,17.7161323 C292.87715,17.829884 293,18.0323869 293,18.2498901 C293,18.4686433 292.87715,18.6698963 292.67735,18.7836479 M299.6349,4.8835 C298.6495,4.80188636 297.6927,4.71379545 296.7437,4.627 C293.2441,4.30443182 289.9395,4 285.5,4 C281.2113,4 277.6142,4.32515909 274.1367,4.63995455 C273.2189,4.72286364 272.2998,4.80577273 271.3651,4.8835 C268.3569,5.13481818 266,7.68556818 266,10.6936136 L266,25.8076818 C266,28.8144318 268.3569,31.3664773 271.3651,31.6165 C272.3427,31.6981136 273.2917,31.7849091 274.2355,31.8717045 C277.7611,32.1942727 281.0917,32.5 285.5,32.5 C290.0331,32.5 293.2623,32.1994545 296.6839,31.8820682 C297.6472,31.7913864 298.6222,31.702 299.6349,31.6165 C302.6444,31.3664773 305,28.8144318 305,25.8076818 L305,10.6936136 C305,7.68556818 302.6444,5.13481818 299.6349,4.8835" id="Fill-50"></path>
            </g>
        </g>
    </g>
</svg>